<svg xmlns="http://www.w3.org/2000/svg" viewBox="0 0 1200 630" width="1200" height="630">
  <defs>
    <linearGradient id="bg" x1="0%" y1="0%" x2="100%" y2="100%">
      <stop offset="0%"   stop-color="#0a0f1e"/>
      <stop offset="55%"  stop-color="#0f172a"/>
      <stop offset="100%" stop-color="#0c1f3a"/>
    </linearGradient>
    <filter id="glow">
      <feGaussianBlur stdDeviation="3" result="coloredBlur"/>
      <feMerge><feMergeNode in="coloredBlur"/><feMergeNode in="SourceGraphic"/></feMerge>
    </filter>
    <filter id="glowStrong">
      <feGaussianBlur stdDeviation="5" result="coloredBlur"/>
      <feMerge><feMergeNode in="coloredBlur"/><feMergeNode in="SourceGraphic"/></feMerge>
    </filter>
  </defs>
  <rect width="1200" height="630" fill="url(#bg)"/>
  <g fill="#38bdf8" opacity="0.05">
    <circle cx="100" cy="60"  r="1.5"/><circle cx="300" cy="60"  r="1.5"/><circle cx="500" cy="60"  r="1.5"/><circle cx="700" cy="60"  r="1.5"/><circle cx="900" cy="60"  r="1.5"/><circle cx="1100" cy="60"  r="1.5"/>
    <circle cx="100" cy="210" r="1.5"/><circle cx="300" cy="210" r="1.5"/><circle cx="500" cy="210" r="1.5"/><circle cx="700" cy="210" r="1.5"/><circle cx="900" cy="210" r="1.5"/><circle cx="1100" cy="210" r="1.5"/>
    <circle cx="100" cy="420" r="1.5"/><circle cx="300" cy="420" r="1.5"/><circle cx="500" cy="420" r="1.5"/><circle cx="700" cy="420" r="1.5"/><circle cx="900" cy="420" r="1.5"/><circle cx="1100" cy="420" r="1.5"/>
    <circle cx="100" cy="570" r="1.5"/><circle cx="300" cy="570" r="1.5"/><circle cx="500" cy="570" r="1.5"/><circle cx="700" cy="570" r="1.5"/><circle cx="900" cy="570" r="1.5"/><circle cx="1100" cy="570" r="1.5"/>
  </g>
  <rect x="340" y="25" width="110" height="42" rx="7" fill="none" stroke="#38bdf8" stroke-width="1.5" opacity="0.6"/>
  <text x="395" y="51" text-anchor="middle" font-family="Arial,sans-serif" font-size="11" fill="#38bdf8" opacity="0.8" font-weight="600">RAW DATA</text>
  <line x1="452" y1="46" x2="470" y2="46" stroke="#38bdf8" stroke-width="1.5" opacity="0.5"/>
  <polygon points="470,41 480,46 470,51" fill="#38bdf8" opacity="0.5"/>
  <rect x="482" y="25" width="90" height="42" rx="7" fill="#34d399" fill-opacity="0.12" stroke="#34d399" stroke-width="1.5"/>
  <text x="527" y="51" text-anchor="middle" font-family="Arial,sans-serif" font-size="11" fill="#34d399" font-weight="700">ETL / ELT</text>
  <line x1="574" y1="46" x2="592" y2="46" stroke="#38bdf8" stroke-width="1.5" opacity="0.5"/>
  <polygon points="592,41 602,46 592,51" fill="#38bdf8" opacity="0.5"/>
  <rect x="604" y="25" width="110" height="42" rx="7" fill="none" stroke="#38bdf8" stroke-width="1.5" opacity="0.6"/>
  <text x="659" y="51" text-anchor="middle" font-family="Arial,sans-serif" font-size="11" fill="#38bdf8" opacity="0.8" font-weight="600">WAREHOUSE</text>
  <line x1="716" y1="46" x2="734" y2="46" stroke="#38bdf8" stroke-width="1.5" opacity="0.5"/>
  <polygon points="734,41 744,46 734,51" fill="#38bdf8" opacity="0.5"/>
  <rect x="746" y="17" width="114" height="58" rx="7" fill="#34d399" fill-opacity="0.18" stroke="#34d399" stroke-width="2" filter="url(#glow)"/>
  <text x="803" y="49" text-anchor="middle" font-family="Arial,sans-serif" font-size="13" fill="#34d399" font-weight="800">INSIGHT</text>
  <text x="803" y="67" text-anchor="middle" font-family="Arial,sans-serif" font-size="9" fill="#34d399" opacity="0.7">Decision-Ready</text>
  <rect x="352" y="95" width="152" height="95" rx="10" fill="#ffffff" fill-opacity="0.04" stroke="#38bdf8" stroke-width="1" stroke-opacity="0.3"/>
  <text x="428" y="148" text-anchor="middle" font-family="Arial,sans-serif" font-size="42" font-weight="900" fill="#34d399" filter="url(#glow)">80%</text>
  <text x="428" y="170" text-anchor="middle" font-family="Arial,sans-serif" font-size="10" fill="white" opacity="0.5" letter-spacing="1">COST REDUCTION</text>
  <text x="428" y="183" text-anchor="middle" font-family="Arial,sans-serif" font-size="9" fill="white" opacity="0.28">API ingestion pipeline</text>
  <rect x="524" y="95" width="152" height="95" rx="10" fill="#ffffff" fill-opacity="0.04" stroke="#38bdf8" stroke-width="1" stroke-opacity="0.3"/>
  <text x="600" y="148" text-anchor="middle" font-family="Arial,sans-serif" font-size="42" font-weight="900" fill="#38bdf8" filter="url(#glow)">99%</text>
  <text x="600" y="170" text-anchor="middle" font-family="Arial,sans-serif" font-size="10" fill="white" opacity="0.5" letter-spacing="1">SYSTEM UPTIME</text>
  <text x="600" y="183" text-anchor="middle" font-family="Arial,sans-serif" font-size="9" fill="white" opacity="0.28">24/7 infrastructure</text>
  <rect x="696" y="95" width="152" height="95" rx="10" fill="#ffffff" fill-opacity="0.04" stroke="#38bdf8" stroke-width="1" stroke-opacity="0.3"/>
  <text x="772" y="148" text-anchor="middle" font-family="Arial,sans-serif" font-size="42" font-weight="900" fill="#34d399" filter="url(#glow)">30%</text>
  <text x="772" y="170" text-anchor="middle" font-family="Arial,sans-serif" font-size="10" fill="white" opacity="0.5" letter-spacing="1">EFFICIENCY GAIN</text>
  <text x="772" y="183" text-anchor="middle" font-family="Arial,sans-serif" font-size="9" fill="white" opacity="0.28">Pipeline optimisation</text>
  <line x1="280" y1="218" x2="920" y2="218" stroke="#34d399" stroke-width="1" opacity="0.22"/>
  <text x="600" y="285" text-anchor="middle" font-family="Arial,Helvetica,sans-serif" font-size="52" font-weight="900" fill="white" letter-spacing="-1">Christopher A. Rotunno</text>
  <text x="600" y="324" text-anchor="middle" font-family="Arial,Helvetica,sans-serif" font-size="24" font-weight="600" fill="#38bdf8" letter-spacing="0.3">Data Analytics Engineer &amp; BI Leader</text>
  <line x1="280" y1="348" x2="920" y2="348" stroke="#34d399" stroke-width="1.5" opacity="0.45"/>
  <text x="600" y="412" text-anchor="middle" font-family="Arial,Helvetica,sans-serif" font-size="50" font-weight="800" fill="white" letter-spacing="-0.5">Putting Insights</text>
  <text x="600" y="470" text-anchor="middle" font-family="Arial,Helvetica,sans-serif" font-size="50" font-weight="800" fill="#34d399" letter-spacing="-0.5" filter="url(#glowStrong)">To Action.</text>
  <text x="600" y="517" text-anchor="middle" font-family="Arial,Helvetica,sans-serif" font-size="13" font-weight="700" fill="#34d399" letter-spacing="0.5" filter="url(#glow)">&#x25CF; OPEN TO WORK &#xB7; Remote &#xB7; Hybrid &#xB7; Open to Relocate Worldwide</text>
  <text x="600" y="565" text-anchor="middle" font-family="Arial,Helvetica,sans-serif" font-size="18" font-weight="700" fill="#34d399" letter-spacing="4" filter="url(#glow)">ROTUNNO.IO</text>
</svg>
