<svg xmlns="http://www.w3.org/2000/svg" viewBox="0 0 1584 396" width="1584" height="396">
  <defs>
    <linearGradient id="bg" x1="0%" y1="0%" x2="100%" y2="100%">
      <stop offset="0%"   stop-color="#0f172a"/>
      <stop offset="55%"  stop-color="#1e3a5f"/>
      <stop offset="100%" stop-color="#0f2d4a"/>
    </linearGradient>
  </defs>
  <rect width="1584" height="396" fill="url(#bg)"/>
  <g opacity="0.12" fill="#38bdf8">
    <circle cx="80"  cy="60"  r="2"/><circle cx="160" cy="60"  r="2"/><circle cx="240" cy="60"  r="2"/><circle cx="320" cy="60"  r="2"/><circle cx="400" cy="60"  r="2"/>
    <circle cx="80"  cy="120" r="2"/><circle cx="160" cy="120" r="2"/><circle cx="240" cy="120" r="2"/><circle cx="320" cy="120" r="2"/><circle cx="400" cy="120" r="2"/>
    <circle cx="80"  cy="180" r="2"/><circle cx="160" cy="180" r="2"/><circle cx="240" cy="180" r="2"/><circle cx="320" cy="180" r="2"/><circle cx="400" cy="180" r="2"/>
    <circle cx="80"  cy="240" r="2"/><circle cx="160" cy="240" r="2"/><circle cx="240" cy="240" r="2"/><circle cx="320" cy="240" r="2"/><circle cx="400" cy="240" r="2"/>
    <circle cx="80"  cy="300" r="2"/><circle cx="160" cy="300" r="2"/><circle cx="240" cy="300" r="2"/><circle cx="320" cy="300" r="2"/><circle cx="400" cy="300" r="2"/>
    <circle cx="80"  cy="360" r="2"/><circle cx="160" cy="360" r="2"/><circle cx="240" cy="360" r="2"/><circle cx="320" cy="360" r="2"/><circle cx="400" cy="360" r="2"/>
  </g>
  <polyline points="80,320 160,280 240,300 320,220 400,180 480,200 540,140" fill="none" stroke="#34d399" stroke-width="2" opacity="0.3" stroke-linecap="round" stroke-linejoin="round"/>
  <g fill="#34d399" opacity="0.45">
    <circle cx="80"  cy="320" r="4"/>
    <circle cx="160" cy="280" r="4"/>
    <circle cx="240" cy="300" r="4"/>
    <circle cx="320" cy="220" r="5"/>
    <circle cx="400" cy="180" r="4"/>
    <circle cx="480" cy="200" r="4"/>
    <circle cx="540" cy="140" r="6"/>
  </g>
  <g fill="#38bdf8" opacity="0.08">
    <rect x="80"  y="340" width="28" height="40"/>
    <rect x="120" y="310" width="28" height="70"/>
    <rect x="160" y="325" width="28" height="55"/>
    <rect x="200" y="295" width="28" height="85"/>
    <rect x="240" y="305" width="28" height="75"/>
    <rect x="280" y="275" width="28" height="105"/>
    <rect x="320" y="285" width="28" height="95"/>
    <rect x="360" y="260" width="28" height="120"/>
  </g>
  <g transform="translate(52,36)" stroke="#38bdf8" stroke-width="2.5" stroke-linecap="round" fill="none" opacity="0.7">
    <line x1="0"  y1="16" x2="32" y2="16"/>
    <line x1="16" y1="32" x2="16" y2="0"/>
    <line x1="5"  y1="5"  x2="27" y2="27"/>
    <line x1="5"  y1="27" x2="27" y2="5"/>
  </g>
  <line x1="600" y1="40" x2="600" y2="356" stroke="#34d399" stroke-width="2" opacity="0.35"/>
  <text x="1540" y="148" text-anchor="end" font-family="Arial,Helvetica,sans-serif" font-size="72" font-weight="800" fill="white" letter-spacing="-1">Putting Insights</text>
  <text x="1540" y="228" text-anchor="end" font-family="Arial,Helvetica,sans-serif" font-size="72" font-weight="800" fill="#34d399" letter-spacing="-1">To Action.</text>
  <text x="1540" y="278" text-anchor="end" font-family="Arial,Helvetica,sans-serif" font-size="28" font-weight="700" fill="white" letter-spacing="1">Christopher A. Rotunno</text>
  <text x="1540" y="316" text-anchor="end" font-family="Arial,Helvetica,sans-serif" font-size="22" font-weight="500" fill="#38bdf8" letter-spacing="0.5">Data Analytics Engineer &amp; BI Leader</text>
  <text x="1540" y="352" text-anchor="end" font-family="Arial,Helvetica,sans-serif" font-size="17" font-weight="400" fill="white" opacity="0.55" letter-spacing="1">SQL &#xB7; Python &#xB7; Spark &#xB7; AWS &#xB7; Tableau &#xB7; Docker</text>
  <text x="1540" y="382" text-anchor="end" font-family="Arial,Helvetica,sans-serif" font-size="15" font-weight="600" fill="#34d399" opacity="0.85" letter-spacing="2">rotunno.io</text>
</svg>