<svg width="133" height="29" viewBox="0 0 133 29" fill="none" xmlns="http://www.w3.org/2000/svg">
<path d="M5.68685 0V28.0579H0V0H5.68685Z" fill="#0c3d46"/>
<path d="M22.5573 5.23802C25.2383 5.23802 27.4047 6.09073 29.0566 7.79613C30.7085 9.47446 31.5344 11.8295 31.5344 14.8614V28.0579H25.8476V15.6329C25.8476 13.8462 25.4007 12.4792 24.5071 11.5318C23.6135 10.5573 22.3948 10.07 20.8513 10.07C19.2806 10.07 18.0349 10.5573 17.1142 11.5318C16.2205 12.4792 15.7737 13.8462 15.7737 15.6329V28.0579H10.0869V5.56286H15.7737V8.3646C16.532 7.39008 17.4933 6.63213 18.6578 6.09073C19.8493 5.52226 21.1491 5.23802 22.5573 5.23802Z" fill="#0c3d46"/>
<path d="M42.3448 10.2324V21.1145C42.3448 21.8725 42.5209 22.4274 42.8729 22.7793C43.252 23.1042 43.8749 23.2666 44.7414 23.2666H47.3818V28.0579H43.8072C39.014 28.0579 36.6174 25.7299 36.6174 21.0739V10.2324H33.9364V5.56286H36.6174V0H42.3448V5.56286H47.3818V10.2324H42.3448Z" fill="#0c3d46"/>
<path d="M55.9403 9.05488C56.6715 7.8638 57.6193 6.92989 58.7837 6.25315C59.9752 5.5764 61.3293 5.23802 62.8458 5.23802V11.2069H61.3428C59.5555 11.2069 58.2015 11.6265 57.2808 12.4657C56.3871 13.3049 55.9403 14.7666 55.9403 16.851V28.0579H50.2534V5.56286H55.9403V9.05488Z" fill="#0c3d46"/>
<path d="M71.1444 5.56286V28.0579H65.4575V5.56286H71.1444Z" fill="#0c3d46"/>
<path d="M88.0148 5.23802C90.6958 5.23802 92.8622 6.09073 94.5141 7.79613C96.166 9.47446 96.9919 11.8295 96.9919 14.8614V28.0579H91.3051V15.6329C91.3051 13.8462 90.8582 12.4792 89.9646 11.5318C89.0709 10.5573 87.8523 10.07 86.3088 10.07C84.7381 10.07 83.4924 10.5573 82.5717 11.5318C81.678 12.4792 81.2312 13.8462 81.2312 15.6329V28.0579H75.5444V5.56286H81.2312V8.3646C81.9895 7.39008 82.9508 6.63213 84.1153 6.09073C85.3068 5.52226 86.6067 5.23802 88.0148 5.23802Z" fill="#0c3d46"/>
<path d="M106.868 5.56286V28.0579H101.181V5.56286H106.868Z" fill="#0c3d46"/>
<path d="M121.261 28.4234C119.094 28.4234 117.145 27.9497 115.411 27.0022C113.678 26.0277 112.311 24.6607 111.309 22.9011C110.334 21.1416 109.846 19.1113 109.846 16.8104C109.846 14.5095 110.347 12.4792 111.349 10.7197C112.378 8.96014 113.773 7.60664 115.533 6.65919C117.293 5.68468 119.257 5.19742 121.423 5.19742C123.59 5.19742 125.553 5.68468 127.313 6.65919C129.073 7.60664 130.454 8.96014 131.456 10.7197C132.485 12.4792 133 14.5095 133 16.8104C133 19.1113 132.472 21.1416 131.416 22.9011C130.387 24.6607 128.979 26.0277 127.191 27.0022C125.431 27.9497 123.454 28.4234 121.261 28.4234ZM121.261 23.4696C122.29 23.4696 123.251 23.226 124.145 22.7387C125.065 22.2244 125.797 21.4664 126.338 20.4648C126.88 19.4633 127.151 18.2451 127.151 16.8104C127.151 14.6719 126.582 13.0342 125.445 11.8972C124.334 10.7332 122.967 10.1512 121.342 10.1512C119.717 10.1512 118.35 10.7332 117.239 11.8972C116.156 13.0342 115.614 14.6719 115.614 16.8104C115.614 18.9489 116.143 20.6002 117.199 21.7642C118.282 22.9011 119.636 23.4696 121.261 23.4696Z" fill="#0c3d46"/>
</svg>
