<svg height="192.873015" viewBox="0 0 250 93" width="518.475847" xmlns="http://www.w3.org/2000/svg"><g fill="#21409a"><path d="m128 38.8q3.5-4.9 7.6-4.9.3 0 .7 0 .3 0 .6.1.3 0 .6.1.4.1.7.2v7.7q-.4-.1-.8-.2-.3 0-.7 0-.3-.1-.7-.1-.3 0-.7 0-5 0-7.1 4.6v14.8h-8.1v-26.7h8v4.4"/><path d="m164.2 57.6c-1.3 1.3-2.8 2.3-4.5 3-1.7.6-3.5 1-5.3 1s-3.6-.4-5.3-1.1c-1.6-.7-3.2-1.7-4.4-3-1.3-1.3-2.3-2.8-2.9-4.5-.7-1.7-1.1-3.5-1.1-5.3s.4-3.6 1.1-5.3c.6-1.6 1.6-3.2 2.9-4.5s2.8-2.3 4.4-3c1.7-.7 3.5-1 5.3-1s3.6.3 5.3 1 3.2 1.7 4.5 3q.9 1 1.7 2.1.7 1.2 1.2 2.4.5 1.3.8 2.6.2 1.4.2 2.7 0 5.9-3.9 9.9m-14.1-5.2q.2.1.4.3.8.8 1.9 1.2 1.1.4 2.3.3 1.1 0 2.2-.5 1-.5 1.8-1.3.8-1 1.3-2.2.4-1.2.4-2.4 0-1.3-.4-2.5-.5-1.2-1.3-2.1-.2-.2-.3-.4-.9-.8-2-1.2-1.1-.4-2.2-.3-1.2 0-2.2.5-1.1.5-1.9 1.4-.8.9-1.2 2.1-.5 1.2-.5 2.5 0 1.2.5 2.4.4 1.2 1.2 2.2z" fill-rule="evenodd"/><path d="m215.5 33.9q5.7 0 9.3 4.1 3.6 4.2 3.6 10 0 .3 0 .6 0 .4-.1.8 0 .1 0 .1 0 .1 0 .2 0 .1 0 .2 0 0 0 .1h-18.4q.9 4.7 6.1 4.7 3.7 0 5.9-2.1l5.9 3.3q-.5.6-1.2 1.2-.6.6-1.2 1.1-.7.6-1.4 1-.7.5-1.5.9-2.9 1.5-7 1.5-6 0-9.8-3.9-3.7-3.8-3.7-9.9 0-6 3.9-10 .9-.9 2-1.7 1.1-.7 2.4-1.2 1.2-.5 2.5-.8 1.3-.2 2.7-.2m4.8 11.3q0-.5-.2-.9-.1-.4-.4-.9-.2-.4-.5-.7-.3-.4-.6-.7-.3-.4-.7-.6-.4-.3-.8-.5-.4-.1-.9-.2-.4-.1-.9-.1-.4 0-.9 0-.4.1-.9.3-.4.1-.8.4-.4.2-.7.5-.4.3-.7.7-.3.4-.6.8-.2.5-.4 1-.2.4-.3.9z" fill-rule="evenodd"/><path d="m247.3 33.9q.4 0 .7 0 .3 0 .6.1.3 0 .7.1.3.1.6.2v7.7q-.4-.1-.7-.2-.4 0-.7 0-.4-.1-.8-.1-.3 0-.7 0-4.9 0-7 4.6v14.8h-8.1v-26.7h7.9v4.4q3.4-4.9 7.6-4.9"/><path d="m112.3 29.4c-.5 3.7-1.9 9.2-6 13.9q-.5.5-.9.9l11.4 16.9h-10.3l-7.8-12.2q-.8.4-1.7.8-.9.3-1.8.6-1 .3-1.9.5-.9.2-1.9.4v9.9h-8.6v-35.5h8.6v17.8q5.8-1.3 9.1-5.1c2.9-3.3 3.9-7.2 4.2-9.9q.1-.3.1-.6 0-.2 0-.5.1-.3.1-.6 0-.3 0-.6c.1-7 3-13.7 8-18.5 5.1-4.9 11.8-7.7 18.9-7.6 7 .1 13.7 2.9 18.7 7.9 4.9 5 7.7 11.7 7.7 18.7h-7.7q0-.4 0-.8c-.1-5-2.2-9.8-5.8-13.3-3.7-3.5-8.5-5.4-13.6-5.3-5 .1-9.8 2.2-13.3 5.9-3.5 3.6-5.4 8.5-5.3 13.5q0 .4 0 .7 0 .3 0 .7-.1.3-.1.7 0 .3-.1.7"/><path d="m198.5 69.7c-.2 6.2-2.9 12.1-7.4 16.4-4.6 4.3-10.6 6.7-16.9 6.6-6.2-.1-12.2-2.7-16.6-7.1s-6.9-10.4-7-16.6h7.6c0 4.3 1.8 8.4 4.8 11.5 3.1 3.1 7.2 4.8 11.6 4.8 4.3 0 8.5-1.7 11.5-4.8 3.1-3.1 4.8-7.2 4.8-11.5v-10.5q-.7.5-1.6.9-.8.4-1.7.7-.9.3-1.8.4-1 .2-1.9.2-4.9 0-8.8-3.8-3.9-3.8-3.9-9.5 0-5.7 3.8-9.6 3.8-3.9 8.9-3.9 1 0 1.9.2 1 .1 1.9.5.8.3 1.6.9.8.5 1.5 1.2v-2.3h7.7zm-9.3-17.8q.8-.9 1.2-2.1.5-1.1.5-2.4 0-1.2-.5-2.4-.4-1.1-1.2-2.1l-.1-.1q-.9-.8-2-1.3-1.1-.4-2.3-.4-1.2 0-2.3.5-1.1.4-1.9 1.3-.8.9-1.3 2.1-.4 1.2-.4 2.4 0 1.3.4 2.4.5 1.2 1.3 2.1l.1.2q.8.8 2 1.2 1.1.5 2.3.5 1.2-.1 2.3-.5 1.1-.5 1.9-1.4z" fill-rule="evenodd"/><path d="m204.4 81.4c0 1.2-.7 2.2-1.7 2.7-1.1.5-2.3.3-3.2-.5-.8-.8-1.1-2-.7-3.1s1.5-1.8 2.6-1.9h.1q.5 0 1.1.2.5.2.9.6.4.4.6.9.2.5.3 1.1zm-5-.1q-.1.5.1.9.1.4.4.7.3.3.7.5.4.1.8.2h.1q.4 0 .8-.2.4-.2.7-.5.3-.3.5-.7.1-.4.1-.8c0-.6-.2-1.2-.6-1.6s-.9-.6-1.5-.6-1.1.2-1.5.6-.6 1-.6 1.6zm1.7 1.4h-.7v-2.8q.2 0 .3 0 .1 0 .3 0 .1 0 .2 0 .2 0 .3 0 .1-.1.2 0 .2 0 .3 0 .1 0 .2.1.2 0 .3.1 0 0 .1.1 0 .1.1.1 0 .1 0 .2 0 .1 0 .2 0 .1 0 .2-.1.1-.1.2-.1.1-.2.1-.1.1-.2.1.1.1.1.2.1 0 .2.1.1.1.1.2.1.1.1.2 0 .1 0 .2 0 .1 0 .2.1.1.1.1 0 .1.1.2h-.7q-.1-.1-.1-.2 0 0-.1-.1 0-.1 0-.2 0-.1 0-.2c-.1-.3-.3-.4-.6-.4h-.3zm0-1.6h.3c.4 0 .6-.1.6-.4s-.1-.4-.5-.4q-.1 0-.1 0-.1 0-.1 0-.1 0-.1 0-.1 0-.1 0z" fill-rule="evenodd"/><path d="m26.6 57.1c0 1.9-1.1 3.5-2.8 4.2s-3.7.3-5-1-1.6-3.3-.9-5 2.3-2.8 4.2-2.8q.9 0 1.7.4.9.3 1.5 1 .6.6 1 1.5.3.8.3 1.7z"/><ellipse cx="59.6" cy="57.1" rx="4.5" ry="4.6"/><path d="m21.8 27q0-.1 0-.2 0-.2 0-.3.1-.1.1-.2.1-.1.2-.1 0-.1.1-.2.1-.1.2-.1.1 0 .2-.1.1 0 .2 0h12.3q.2 0 .3 0 .1.1.3.1.1.1.2.2.1.1.1.2.1.2.1.3.1.1.1.3 0 .1-.1.2 0 .2-.1.3l-6.3 11.1q-.1.2-.3.3-.1.1-.3.2-.2.1-.4 0-.2 0-.4-.1 0 0-.1 0 0 0 0 0 0-.1 0-.1-.1 0-.1 0-1.2-1.1-2.3-2.4-1-1.2-1.8-2.7-.8-1.4-1.4-3-.5-1.6-.7-3.2-.1-.2-.1-.5zm19.9 16.1q-1.1.1-2.2.1-1.2 0-2.3-.2-1.1-.2-2.2-.5-1.1-.3-2.1-.8-.1 0-.2-.1-.1 0-.2-.1-.1-.1-.1-.2-.1-.1-.1-.2-.1-.1-.1-.2 0-.1 0-.2 0-.1.1-.3 0-.1.1-.2l7.3-12.8q.2-.3.4-.4.2-.1.5-.1.3 0 .5.1.3.1.4.4l7.1 12.4q.1.2.2.4 0 .2-.1.5 0 .2-.2.3-.1.2-.3.3-.8.4-1.6.7-.7.3-1.6.5-.8.2-1.6.4-.8.2-1.7.2zm12.5-6.6q-.2.2-.4.4-.1.2-.3.4-.2.2-.4.4-.2.2-.4.4 0 0-.1.1-.1.1-.2.1-.2 0-.3.1-.1 0-.2 0-.1-.1-.2-.1-.1-.1-.2-.1-.1-.1-.2-.2-.1-.1-.2-.2l-5.9-10.4q-.1-.1-.1-.3-.1-.1-.1-.2 0-.2.1-.3 0-.2.1-.3 0-.1.1-.2.1-.1.2-.2.2 0 .3-.1.1 0 .3 0h11.2q.1 0 .2 0 .1.1.2.1.1 0 .2.1.1.1.1.2.1 0 .2.1 0 .1 0 .2.1.1.1.3 0 .1 0 .2-.2 1.3-.5 2.5-.4 1.3-.9 2.5-.5 1.2-1.2 2.4-.7 1.1-1.5 2.1z"/><path d="m69.5 25.8c-.7 14.5-11.9 26.7-26.6 28q-1.4.2-2.7.2c-15 0-27.9-11.6-29.3-27-.6-7.1-4.5-11.2-10.9-11.7v-7.6c10.4.5 17.4 7.6 18.4 18.6 1.1 12.1 11.8 21.1 23.8 20 10.8-1 19-9.9 19.8-20.5z"/></g></svg>