<svg viewBox="0 0 1783.91 515.48" xmlns="http://www.w3.org/2000/svg"><path d="m56.16 432.67h-41.26c-8.23 0-14.9-6.67-14.9-14.9v-239.65c0-4.62 2.14-8.98 5.79-11.8l211.39-163.21c5.36-4.14 12.84-4.14 18.21 0l212.15 163.8c3.18 2.46 5.05 6.25 5.05 10.27v240.6c0 8.23-6.67 14.9-14.9 14.9h-306.92c-8.24 0-14.9-6.67-14.9-14.9v-191.6l102.82-75.17c4.52-3.31 10.68-3.28 15.17.07l87.56 65.27-46.28 46.5-18.4-13.59c-15.4-11.37-36.41-11.43-51.87-.13-11.28 8.24-17.95 21.38-17.95 35.35v64.15c0 7.17 5.81 12.98 12.98 12.98h168.63c7.17 0 12.98-5.81 12.98-12.98v-135.6c0-4.62-2.14-8.98-5.79-11.8l-140.32-108.33c-5.36-4.14-12.84-4.14-18.21 0l-140.34 108.34c-3.65 2.82-5.79 7.18-5.79 11.8v204.75c0 8.22-6.67 14.89-14.9 14.89" fill="#36b0c9"></path><g fill="#003057"><path d="m569.29 432.67h51.69c5.4 0 9.79-4.38 9.79-9.79v-80.05c0-19.25 4.14-33.89 12.4-43.91 8.27-10.03 20.68-15.03 37.21-15.03 7.18 0 14.03 1.02 20.55 3.06 5.05 1.58 10.16-2.27 10.16-7.57v-50.83c0-4.21-3.41-7.62-7.61-7.63h-6.17c-14.71 0-27.56 3.28-38.59 9.82-11.03 6.55-20.36 15.98-27.97 28.27v-24.48c0-5.41-4.38-9.79-9.79-9.79h-51.69c-5.41 0-9.79 4.38-9.79 9.79v188.34c.02 5.42 4.4 9.8 9.81 9.8"></path><path d="m908.94 370.02c5.66 1.6 8.65 7.79 6.38 13.2-13.1 31.22-44.65 55.74-92.21 55.74-57.32 0-108.37-41-108.37-110.89s49.79-109.61 103.77-109.61c64.42 0 104.18 39.75 104.18 106.69 0 3.55-.14 7.23-.33 10.45-.31 5.18-4.59 9.21-9.77 9.21h-130.37c-3.07 0-5.43 2.81-4.82 5.83 4.17 20.33 23.95 34.33 46.53 34.33 19.53 0 31.83-7.82 38.68-20.16 2.22-4 6.86-5.98 11.26-4.73zm-53.33-66.21c3.12 0 5.43-2.87 4.8-5.91-3-14.39-14.61-29.23-41.07-29.23-23.31 0-36.48 14.92-40.33 28.99-.84 3.1 1.53 6.16 4.75 6.16h71.85z"></path><path d="m992.4 432.67h-44.01c-5.4 0-9.79-4.38-9.79-9.79v-188.36c0-5.4 4.38-9.79 9.79-9.79h41.85c5.44 0 9.85 4.41 9.85 9.85v14c11.3-19.67 36.82-29.29 58.16-29.29 52.3 0 75.73 37.23 75.73 82.84v120.75c0 5.41-4.38 9.79-9.79 9.79h-44.02c-5.4 0-9.79-4.38-9.79-9.79v-109.86c0-20.45-10.82-35.91-33.71-35.99-18.97-.07-34.49 16.08-34.49 35.05v110.8c.01 5.41-4.37 9.79-9.78 9.79"></path><path d="m1348 422.12c.45 5.69-4.05 10.55-9.76 10.55h-43.13c-4.19 0-7.69-3.18-8.11-7.34l-.14-1.32c-.4-4.03-5.21-5.74-8.19-3-12.34 11.36-31.14 16.28-48.03 16.28-50.64 0-79.06-36.85-79.06-81.18v-121.58c0-5.4 4.38-9.79 9.79-9.79h43.98c5.41 0 9.79 4.39 9.79 9.79v108.19c0 20.08 10.88 35.99 33.5 35.99 21.34 0 34.72-14.65 34.72-35.57v-108.61c0-5.4 4.38-9.79 9.79-9.79h44.02c5.41 0 9.79 4.39 9.79 9.79v160.91c0 10.51.5 19.87 1.04 26.68"></path><path d="m1381.82 224.73h41.53c5.4 0 9.79 4.38 9.79 9.79v188.36c0 5.4-4.38 9.79-9.79 9.79h-41.53c-5.4 0-9.79-4.38-9.79-9.79v-188.35c0-5.41 4.39-9.8 9.79-9.8"></path><path d="m1772.46 224.71h-40.33c-4.18 0-7.9 2.67-9.23 6.64l-39.41 117.29-.12.39c-2.85 9.43-16.29 9.14-18.75-.39l-33.6-115.68c-1.42-4.88-5.89-8.24-10.97-8.24h-89.19c-5.41 0-9.79-4.36-9.79-9.77v-34.54c0-5.41-4.38-9.79-9.79-9.79h-42.45c-6.18 0-11.17 5.02-11.15 11.19l.64 187.7c0 41.43 26.36 66.94 69.45 66.94 11.98 0 20.54-1.63 26.03-3.22 4.17-1.21 7.03-5.05 7.03-9.39v-34.42c0-5.83-5.06-10.3-10.86-9.73-1.89.18-3.86.3-5.88.3-13.8 0-23-4.61-23-21.77v-68.02c0-5.4 4.38-9.79 9.79-9.79h42.38c4.18 0 7.9 2.65 9.26 6.6l47.78 138.87c1.36 3.94 5.06 6.57 9.21 6.57h1.75c6.67 0 11.74 6.47 9.64 12.8-1.42 4.3-5.44 7.2-9.97 7.2h-109.9c-5.41 0-9.79 4.38-9.79 9.79v43.45c0 5.4 4.38 9.79 9.79 9.79h149.35c4.15 0 7.83-2.62 9.19-6.54l93.71-269.04c2.56-7.43-2.95-15.19-10.82-15.19"></path></g></svg>